<?xml version="1.0" encoding="utf-8"?>
<!-- Generator: Adobe Illustrator 18.1.0, SVG Export Plug-In . SVG Version: 6.00 Build 0)  -->
<svg version="1.1"
	 id="svg2" xmlns:dc="http://purl.org/dc/elements/1.1/" xmlns:inkscape="http://www.inkscape.org/namespaces/inkscape" xmlns:cc="http://creativecommons.org/ns#" xmlns:svg="http://www.w3.org/2000/svg" xmlns:rdf="http://www.w3.org/1999/02/22-rdf-syntax-ns#"
	 xmlns="http://www.w3.org/2000/svg" xmlns:xlink="http://www.w3.org/1999/xlink" x="0px" y="0px" viewBox="-290 382 30 30"
	 enable-background="new -290 382 30 30" xml:space="preserve">
<path id="path4" inkscape:connector-curvature="0" fill="#00AACC" d="M-253.5,419.5h-33.7c-3.6,0-6.7-1.7-8.8-4.3l0,0l-0.3-0.5
	c-0.1-0.1-0.2-0.3-0.3-0.4L-309,397l12.9-18.3l0.1,0.1c2.1-2.6,5.2-4.3,8.8-4.3h33.7c6.2,0,11.2,5,11.2,11.2v22.5
	C-242.3,414.5-247.3,419.5-253.5,419.5L-253.5,419.5z M-266.4,397.1c-0.1-0.1-0.1-0.1-0.2-0.1c0.1,0,0.1,0,0.2-0.1l0,0l6.9-6.9
	c-0.5-2.1-1.3-3.9-2.2-5.6l-8.8,8.8l-8.8-8.8c-0.9,1.6-1.7,3.5-2.2,5.5l7,7h0c0.1,0.1,0.1,0.1,0.2,0.1c-0.1,0-0.1,0-0.2,0.1l0,0
	l-6.9,6.9c0.5,2.1,1.3,4,2.2,5.6l8.8-8.8l8.8,8.8c0.9-1.6,1.7-3.5,2.2-5.6L-266.4,397.1L-266.4,397.1L-266.4,397.1z"/>
</svg>
