<?xml version="1.0" encoding="utf-8"?>
<!-- Generator: Adobe Illustrator 18.1.0, SVG Export Plug-In . SVG Version: 6.00 Build 0)  -->
<svg version="1.1"
	 id="svg2" xmlns:dc="http://purl.org/dc/elements/1.1/" xmlns:inkscape="http://www.inkscape.org/namespaces/inkscape" xmlns:cc="http://creativecommons.org/ns#" xmlns:svg="http://www.w3.org/2000/svg" xmlns:rdf="http://www.w3.org/1999/02/22-rdf-syntax-ns#"
	 xmlns="http://www.w3.org/2000/svg" xmlns:xlink="http://www.w3.org/1999/xlink" x="0px" y="0px" viewBox="-290 382 30 30"
	 enable-background="new -290 382 30 30" xml:space="preserve">
<path id="path4" inkscape:connector-curvature="0" fill="#00AACC" d="M-273.8,361c-19.9,0-36,16.1-36,36s16.1,36,36,36
	c19.9,0,36-16.1,36-36S-253.9,361-273.8,361z M-288.1,381.7l1.7,1.7c0,0,0,0.1,0.1,0.1l12.4,12.4c0.4,0.4,1,0.4,1.4,0l12.4-12.4
	c0,0,0-0.1,0.1-0.1l1.7-1.7c2.3,0.3,4.5,0.7,6.6,1.1c-0.2,0.8-0.6,1.5-1.2,2.1l-16.3,16.4c-2.1,2.1-5.5,2.1-7.6,0l-16.4-16.4
	c-0.6-0.6-1-1.3-1.2-2.1C-292.5,382.4-290.3,382-288.1,381.7L-288.1,381.7z M-257,413.5h-32.4c-2.6,0-4.8-1.9-5.7-4.5h43.8
	C-252.2,411.6-254.5,413.5-257,413.5z"/>
</svg>
