<?xml version="1.0" encoding="utf-8"?>
<!-- Generator: Adobe Illustrator 18.1.0, SVG Export Plug-In . SVG Version: 6.00 Build 0)  -->
<svg version="1.1" xmlns="http://www.w3.org/2000/svg" xmlns:xlink="http://www.w3.org/1999/xlink" x="0px" y="0px"
	 viewBox="0 0 612 792" enable-background="new 0 0 612 792" xml:space="preserve">
<g id="Headphones_1_">
	
		<g id="Headphones" xmlns:dc="http://purl.org/dc/elements/1.1/" xmlns:cc="http://creativecommons.org/ns#" xmlns:rdf="http://www.w3.org/1999/02/22-rdf-syntax-ns#" xmlns:svg="http://www.w3.org/2000/svg" xmlns:inkscape="http://www.inkscape.org/namespaces/inkscape">
		<path id="path4" inkscape:connector-curvature="0" fill="#EAEAE7" d="M-755.1,1043.2c-195.8,24.5-318.2,330.5-269.3,661
			c49,342.7,244.8,587.5,440.6,563c195.8-24.5,318.2-330.5,269.3-661C-363.4,1263.5-559.3,1018.7-755.1,1043.2z M1497,798.4
			c0-832.3-661-1517.8-1481-1517.8S-1465-46.2-1465,798.4c0,85.7,12.2,171.4,24.5,257l134.6,709.9c97.9,122.4,220.3,232.6,355,330.5
			L-1146.8,1031c-12.2-73.4-24.5-146.9-24.5-232.6c0-673.2,526.3-1224,1187.3-1224s1187.3,550.8,1187.3,1224
			c0,73.4-12.2,159.1-24.5,232.6L995.2,2083.6c134.6-97.9,257-208.1,355-330.5l134.6-709.9C1497,969.8,1497,884.1,1497,798.4z
			 M799.4,1055.4c-195.8-24.5-391.7,220.3-440.6,550.8c-49,330.5,73.4,624.2,269.3,661c195.8,24.5,391.7-220.3,440.6-550.8
			C1117.6,1373.7,995.2,1079.9,799.4,1055.4z"/>
	</g>
</g>
<g id="Mic_1_">
	<path id="path4_1_" inkscape:connector-curvature="0" fill="#EAEAE7" d="M819.6,31.1C744.9-107.6,571.6-159.3,432.8-84.5
		C354.6-42.3,305.4,31.4,289.6,112.4l-1079,582.2c2.1,9.4,5.6,18.6,8.2,27.9c-43.5,49.6-54.5,122.7-21.4,184.2
		c33.3,61.1,100.4,92,165.7,82.8c6.3,7,12.1,14.7,18.7,21.8l590.4-318.7v656.6c23.4,8.4,47.2,12.6,71.6,12.6s48.3-4.2,71.6-12.6
		v-733l345.2-186.3c76.3,31.2,165.1,30.4,243.2-11.8C842.7,343,894.5,169.9,819.6,31.1L819.6,31.1z M-38,551.7
		c-10.2-13.3-19.5-27.5-27.8-42.8c-8.1-15.1-15-30.7-20.4-46.6l211.9-114.4c10.2,13.3,19.7,27.4,27.8,42.8
		c8.1,14.7,15,30.2,20.5,46.3L-38,551.5V551.7z"/>
</g>
</svg>
