<?xml version="1.0" encoding="utf-8"?>
<!-- Generator: Adobe Illustrator 18.1.0, SVG Export Plug-In . SVG Version: 6.00 Build 0)  -->
<svg version="1.1" xmlns="http://www.w3.org/2000/svg" xmlns:xlink="http://www.w3.org/1999/xlink" x="0px" y="0px"
	 viewBox="-290 382 30 30" enable-background="new -290 382 30 30" xml:space="preserve">
<g id="Headphones" xmlns:dc="http://purl.org/dc/elements/1.1/" xmlns:cc="http://creativecommons.org/ns#" xmlns:rdf="http://www.w3.org/1999/02/22-rdf-syntax-ns#" xmlns:svg="http://www.w3.org/2000/svg" xmlns:inkscape="http://www.inkscape.org/namespaces/inkscape">
	<path id="path4" inkscape:connector-curvature="0" fill="#EAEAE7" d="M-312.8,410c-9.6,1.2-15.6,16.2-13.2,32.4
		c2.4,16.8,12,28.8,21.6,27.6s15.6-16.2,13.2-32.4C-293.6,420.8-303.2,408.8-312.8,410z M-202.4,398c0-40.8-32.4-74.4-72.6-74.4
		s-72.6,33-72.6,74.4c0,4.2,0.6,8.4,1.2,12.6l6.6,34.8c4.8,6,10.8,11.4,17.4,16.2l-9.6-52.2c-0.6-3.6-1.2-7.2-1.2-11.4
		c0-33,25.8-60,58.2-60s58.2,27,58.2,60c0,3.6-0.6,7.8-1.2,11.4l-9,51.6c6.6-4.8,12.6-10.2,17.4-16.2l6.6-34.8
		C-202.4,406.4-202.4,402.2-202.4,398z M-236.6,410.6c-9.6-1.2-19.2,10.8-21.6,27c-2.4,16.2,3.6,30.6,13.2,32.4
		c9.6,1.2,19.2-10.8,21.6-27C-221,426.2-227,411.8-236.6,410.6z"/>
</g>
<g id="Mic">
</g>
</svg>
