<?xml version="1.0" encoding="utf-8"?>
<!-- Generator: Adobe Illustrator 18.1.0, SVG Export Plug-In . SVG Version: 6.00 Build 0)  -->
<svg version="1.1"
	 id="svg2" xmlns:dc="http://purl.org/dc/elements/1.1/" xmlns:cc="http://creativecommons.org/ns#" xmlns:rdf="http://www.w3.org/1999/02/22-rdf-syntax-ns#" xmlns:svg="http://www.w3.org/2000/svg" xmlns:inkscape="http://www.inkscape.org/namespaces/inkscape"
	 xmlns="http://www.w3.org/2000/svg" xmlns:xlink="http://www.w3.org/1999/xlink" x="0px" y="0px" viewBox="-290 382 30 30"
	 enable-background="new -290 382 30 30" xml:space="preserve">
<path id="path4" inkscape:connector-curvature="0" fill="#00AACC" d="M-275.5,364.8c-17.4,0-31.5,14.1-31.5,31.5
	c0,15.2,10.8,27.9,25.2,30.9l3.9-28.1l6.9-0.1l-3.5,28.4c17.3-0.1,30.5-13.7,30.5-31.1C-244,378.9-258.1,364.8-275.5,364.8
	L-275.5,364.8z M-269.7,389.6c-0.9,0.9-2,1.3-3.3,1.3c-1.3,0-2.4-0.4-3.3-1.3c-0.9-0.9-1.3-1.9-1.3-3.2c0-1.2,0.4-2.2,1.3-3.1
	c0.9-0.9,1.9-1.3,3.3-1.3c1.4,0,2.5,0.4,3.3,1.3c0.9,0.9,1.3,1.9,1.3,3.1C-268.4,387.7-268.9,388.7-269.7,389.6L-269.7,389.6z"/>
</svg>
