<?xml version="1.0" encoding="utf-8"?>
<!-- Generator: Adobe Illustrator 18.1.0, SVG Export Plug-In . SVG Version: 6.00 Build 0)  -->
<svg version="1.1"
	 id="svg2" xmlns:dc="http://purl.org/dc/elements/1.1/" xmlns:cc="http://creativecommons.org/ns#" xmlns:rdf="http://www.w3.org/1999/02/22-rdf-syntax-ns#" xmlns:svg="http://www.w3.org/2000/svg" xmlns:inkscape="http://www.inkscape.org/namespaces/inkscape"
	 xmlns="http://www.w3.org/2000/svg" xmlns:xlink="http://www.w3.org/1999/xlink" x="0px" y="0px" viewBox="-290 382 30 30"
	 enable-background="new -290 382 30 30" xml:space="preserve">
<path id="path4" inkscape:connector-curvature="0" fill="#EAEAE7" d="M-287,378h24c1.2,0,2.3-2.2,2.3-4.7s-1-4.3-2.3-4.3h-24
	c-1.2,0-2.2,1.9-2.2,4.3S-288.3,378-287,378L-287,378z M-263,393h-24c-1.2,0-2.2,1.9-2.2,4.4s1,4.5,2.2,4.5h24c1.2,0,2.2-2,2.2-4.5
	S-261.8,393-263,393z M-263,417h-24c-1.2,0-2.2,1.9-2.2,4.4s1,4.6,2.2,4.6h24c1.2,0,2.3-2.1,2.3-4.6C-260.7,418.9-261.8,417-263,417
	z"/>
</svg>
