<?xml version="1.0" encoding="utf-8"?>
<!-- Generator: Adobe Illustrator 18.1.0, SVG Export Plug-In . SVG Version: 6.00 Build 0)  -->
<svg version="1.1"
	 id="svg2" xmlns:dc="http://purl.org/dc/elements/1.1/" xmlns:inkscape="http://www.inkscape.org/namespaces/inkscape" xmlns:cc="http://creativecommons.org/ns#" xmlns:svg="http://www.w3.org/2000/svg" xmlns:rdf="http://www.w3.org/1999/02/22-rdf-syntax-ns#"
	 xmlns="http://www.w3.org/2000/svg" xmlns:xlink="http://www.w3.org/1999/xlink" x="0px" y="0px" viewBox="-290 382 30 30"
	 enable-background="new -290 382 30 30" xml:space="preserve">
<path id="path4" inkscape:connector-curvature="0" fill="#00AACC" d="M-238.2,463.8c-6.4,0-12.7-0.4-18.8-1.1V331.3
	c6.1-0.7,12.4-1.1,18.8-1.1c5.9,0,11.5,0.5,17.2,1.1V463C-226.6,463.6-232.3,463.8-238.2,463.8L-238.2,463.8z M-329,463V331.6
	c6.1-0.7,12.4-1.5,18.8-1.5c5.9,0,11.5,0.5,17.2,1.1V463c-5.6,0.6-11.3,0.8-17.2,0.8C-316.6,463.8-322.9,463.7-329,463z"/>
</svg>
