<?xml version="1.0" encoding="utf-8"?>
<!-- Generator: Adobe Illustrator 18.1.0, SVG Export Plug-In . SVG Version: 6.00 Build 0)  -->
<svg version="1.1"
	 id="svg2" xmlns:dc="http://purl.org/dc/elements/1.1/" xmlns:inkscape="http://www.inkscape.org/namespaces/inkscape" xmlns:cc="http://creativecommons.org/ns#" xmlns:svg="http://www.w3.org/2000/svg" xmlns:rdf="http://www.w3.org/1999/02/22-rdf-syntax-ns#"
	 xmlns="http://www.w3.org/2000/svg" xmlns:xlink="http://www.w3.org/1999/xlink" x="0px" y="0px" viewBox="-290 382 30 30"
	 enable-background="new -290 382 30 30" xml:space="preserve">
<path id="path4" inkscape:connector-curvature="0" fill="#EAEAE7" d="M-253.3,402.4v22.5c0,2.1-1.7,3.7-3.7,3.7h-52.6
	c-2.1,0-3.7-1.7-3.7-3.7V385l6-6v42.3c0,0.8,0.7,1.4,1.4,1.4h45.2c0.8,0,1.4-0.7,1.4-1.5v-18.8c-9.6-1.2-17.1-9.3-17.1-19.3
	c0-3.1,0.8-5.9,2-8.5h-28.7l6-6h27.3c3.4-3.1,8-5,13-5c10.8,0,19.5,8.7,19.5,19.5C-237.3,392.8-244.2,400.7-253.3,402.4
	L-253.3,402.4z M-246,381.1L-246,381.1l-16.9-10.5v25.1l16.9-10.5c0.7-0.4,1.2-1.2,1.2-2.1S-245.3,381.5-246,381.1z"/>
</svg>
