<?xml version="1.0" encoding="utf-8"?>
<!-- Generator: Adobe Illustrator 18.1.0, SVG Export Plug-In . SVG Version: 6.00 Build 0)  -->
<svg version="1.1"
	 id="svg2" xmlns:dc="http://purl.org/dc/elements/1.1/" xmlns:cc="http://creativecommons.org/ns#" xmlns:rdf="http://www.w3.org/1999/02/22-rdf-syntax-ns#" xmlns:svg="http://www.w3.org/2000/svg" xmlns:inkscape="http://www.inkscape.org/namespaces/inkscape"
	 xmlns="http://www.w3.org/2000/svg" xmlns:xlink="http://www.w3.org/1999/xlink" x="0px" y="0px" viewBox="-290 382 30 30"
	 enable-background="new -290 382 30 30" xml:space="preserve">
<path id="path4" inkscape:connector-curvature="0" fill="#1C2224" d="M-245.3,418.3l-11.9-12.7c2.4-3.9,3.7-8.5,3.7-13.5
	c0-14.4-11.5-26-25.7-26c-14.2,0-25.7,11.6-25.7,26c0,14.4,11.5,26,25.7,26c4.8,0,9.4-1.4,13.2-3.8l12.6,12c1.1,1.1,3.8,0.2,6-2
	C-245.1,422.2-244.2,419.5-245.3,418.3L-245.3,418.3z M-279.2,410.9c-10.2,0-18.5-8.4-18.5-18.8s8.3-18.8,18.5-18.8
	s18.5,8.4,18.5,18.8C-260.6,402.5-268.9,410.9-279.2,410.9z"/>
</svg>
