<?xml version="1.0" encoding="utf-8"?>
<!-- Generator: Adobe Illustrator 18.1.0, SVG Export Plug-In . SVG Version: 6.00 Build 0)  -->
<svg version="1.1"
	 id="svg2" xmlns:dc="http://purl.org/dc/elements/1.1/" xmlns:inkscape="http://www.inkscape.org/namespaces/inkscape" xmlns:cc="http://creativecommons.org/ns#" xmlns:svg="http://www.w3.org/2000/svg" xmlns:rdf="http://www.w3.org/1999/02/22-rdf-syntax-ns#"
	 xmlns="http://www.w3.org/2000/svg" xmlns:xlink="http://www.w3.org/1999/xlink" x="0px" y="0px" viewBox="-290 382 30 30"
	 enable-background="new -290 382 30 30" xml:space="preserve">
<path id="path4" inkscape:connector-curvature="0" fill="#00AACC" d="M-258.6,405.3L-258.6,405.3c-2.6-1.6-4.4-4.6-4.4-8.1
	c0-3.4,1.8-6.4,4.4-8l67.6-41.4v97.4L-258.6,405.3z M-337.1,405.3c-2.6-1.6-4.4-4.6-4.4-8c0-3.4,1.8-6.4,4.4-8l68.1-40.7V446
	L-337.1,405.3L-337.1,405.3z M-359,444.9v-95.1c1.4-0.1,2.8-0.2,4.2-0.2c3,0,5,0.3,7.8,0.9v93.8c-2.8,0.6-4.8,0.9-7.8,0.9
	C-356.2,445.1-357.6,445-359,444.9z"/>
</svg>
