<?xml version="1.0" encoding="utf-8"?>
<!-- Generator: Adobe Illustrator 18.1.0, SVG Export Plug-In . SVG Version: 6.00 Build 0)  -->
<svg version="1.1"
	 id="svg2" xmlns:dc="http://purl.org/dc/elements/1.1/" xmlns:inkscape="http://www.inkscape.org/namespaces/inkscape" xmlns:cc="http://creativecommons.org/ns#" xmlns:svg="http://www.w3.org/2000/svg" xmlns:rdf="http://www.w3.org/1999/02/22-rdf-syntax-ns#"
	 xmlns="http://www.w3.org/2000/svg" xmlns:xlink="http://www.w3.org/1999/xlink" x="0px" y="0px" viewBox="-290 382 30 30"
	 enable-background="new -290 382 30 30" xml:space="preserve">
<path id="path4" inkscape:connector-curvature="0" fill="#00AACC" d="M-203,443.1v-92.6c5.2-1.1,10.6-1.4,12-1.2v95.1
	C-192.4,444.5-200,444.3-203,443.1L-203,443.1z M-212.9,405.3L-281,446v-97.4l68.1,40.7c2.6,1.7,4.4,4.6,4.4,8
	C-208.4,400.7-210.2,403.7-212.9,405.3L-212.9,405.3L-212.9,405.3z M-291.4,405.3l-67.6,39.9v-97.4l67.6,41.4c2.6,1.6,4.4,4.6,4.4,8
	C-287,400.7-288.8,403.7-291.4,405.3L-291.4,405.3L-291.4,405.3z"/>
</svg>
