<?xml version="1.0" encoding="utf-8"?>
<!-- Generator: Adobe Illustrator 18.1.0, SVG Export Plug-In . SVG Version: 6.00 Build 0)  -->
<svg version="1.1"
	 id="svg2" xmlns:dc="http://purl.org/dc/elements/1.1/" xmlns:inkscape="http://www.inkscape.org/namespaces/inkscape" xmlns:cc="http://creativecommons.org/ns#" xmlns:svg="http://www.w3.org/2000/svg" xmlns:rdf="http://www.w3.org/1999/02/22-rdf-syntax-ns#"
	 xmlns="http://www.w3.org/2000/svg" xmlns:xlink="http://www.w3.org/1999/xlink" x="0px" y="0px" viewBox="-290 382 30 30"
	 enable-background="new -290 382 30 30" xml:space="preserve">
<path id="path4" inkscape:connector-curvature="0" fill="#EAEAE7" d="M-246.7,396.9c0-3.4,1.1-6.5,2.6-7l2.5-0.9
	c-0.9-3.7-2.3-7.1-4.2-10.2l-2.4,1.1c-1.5,0.7-4.5-0.7-6.8-3.1c-2.4-2.4-3.8-5.3-3.1-6.8l1.1-2.4c-3.1-1.9-6.5-3.4-10.2-4.2
	l-0.9,2.5c-0.5,1.6-3.7,2.7-7,2.7c-3.4,0-6.5-1.1-7-2.6l-0.9-2.5c-3.7,0.9-7,2.4-10.2,4.3l1.1,2.3c0.7,1.5-0.7,4.5-3.1,6.8
	s-5.3,3.8-6.8,3.1l-2.3-1.1c-1.9,3.1-3.4,6.5-4.3,10.1l2.5,0.9c1.6,0.5,2.7,3.6,2.7,7c0,3.4-1.1,6.5-2.6,7l-2.5,0.9
	c0.9,3.6,2.3,7.1,4.2,10.2l2.4-1.1c1.5-0.7,4.5,0.7,6.8,3.1c2.4,2.4,3.8,5.3,3.1,6.8l-1.1,2.4c3.1,1.9,6.5,3.4,10.2,4.2l0.9-2.5
	c0.5-1.6,3.7-2.6,7-2.6c3.4,0,6.5,1.1,7,2.6l0.9,2.5c3.6-0.9,7.1-2.3,10.2-4.2l-1.1-2.4c-0.7-1.5,0.7-4.5,3.1-6.8
	c2.4-2.4,5.4-3.8,6.8-3.1l2.4,1.1c1.9-3.1,3.4-6.5,4.2-10.2l-2.5-0.9C-245.6,403.4-246.7,400.3-246.7,396.9L-246.7,396.9z
	 M-275,415.1c-10,0-18.1-8.1-18.1-18.1c0-10,8.1-18.1,18.1-18.1s18.1,8.1,18.1,18.1C-256.9,407-265,415.1-275,415.1L-275,415.1z"/>
</svg>
